# xmcd
#
# Track frame offsets: 
#        150
#        17750
#        35100
#        54204
#        70254
#        87081
#        99162
#        115599
#        132208
#        150898
#        170608
#        185601
#        199899
#        214379
#
# Disc length: 3066 seconds
#
# Revision: 5
# Processed by: cddbd v1.5.1PL0 Copyright (c) Steve Scherf et al.
# Submitted via: ExactAudioCopy v0.90b4
#
DISCID=b60bf80e
DTITLE=Kenny Rogers - Through The Years [CD1]
DYEAR=1998
DGENRE=Country
TTITLE0=Lady
TTITLE1=We've Got Tonight (with Sheena Easton)
TTITLE2=She Belives In Me
TTITLE3=Just The Way You Are (with Dottie West)
TTITLE4=Love Lifted Me
TTITLE5=My World Begins And Ends With You
TTITLE6=You Decorated My Life
TTITLE7=Don't Fall In Love With A Dreamer (with Kim Carnes)
TTITLE8=You've Lost That Lovin' Feeling
TTITLE9=Through The Years
TTITLE10=Till I Can Make It On My Own (with Dottie West)
TTITLE11=Daytime Friends
TTITLE12=Love The World Away
TTITLE13=I Don't Need You
EXTD=
EXTT0=
EXTT1=
EXTT2=
EXTT3=
EXTT4=
EXTT5=
EXTT6=
EXTT7=
EXTT8=
EXTT9=
EXTT10=
EXTT11=
EXTT12=
EXTT13=
PLAYORDER=
